<mxfile host="app.diagrams.net" agent="Mozilla/5.0 (Windows NT 10.0; Win64; x64) AppleWebKit/537.36 (KHTML, like Gecko) Chrome/134.0.0.0 Safari/537.36" version="26.1.0">
  <diagram name="第 1 页" id="yA0aYAj1NLay7Wjz5RSh">
    <mxGraphModel dx="1793" dy="-236" grid="1" gridSize="10" guides="1" tooltips="1" connect="1" arrows="1" fold="1" page="1" pageScale="1" pageWidth="827" pageHeight="1169" math="0" shadow="0">
      <root>
        <mxCell id="0" />
        <mxCell id="1" parent="0" />
        <mxCell id="zjPSrjeSeQt5ffsrBEnH-18" value="" style="html=1;whiteSpace=wrap;rounded=1;strokeColor=#7030a0;strokeWidth=1.5;align=center;verticalAlign=middle;fontFamily=Helvetica;fontSize=12;fontColor=default;fillColor=none;movable=1;resizable=1;rotatable=1;deletable=1;editable=1;locked=0;connectable=1;" vertex="1" parent="1">
          <mxGeometry x="120" y="1840" width="1000" height="190" as="geometry" />
        </mxCell>
        <mxCell id="zjPSrjeSeQt5ffsrBEnH-19" value="" style="html=1;whiteSpace=wrap;rounded=1;strokeColor=#000000;strokeWidth=1.5;align=center;verticalAlign=middle;fontFamily=Helvetica;fontSize=12;fontColor=default;fillColor=none;movable=1;resizable=1;rotatable=1;deletable=1;editable=1;locked=0;connectable=1;" vertex="1" parent="1">
          <mxGeometry x="120" y="1590" width="1000" height="200" as="geometry" />
        </mxCell>
        <mxCell id="zjPSrjeSeQt5ffsrBEnH-25" value="&lt;div style=&quot;font-size: 15px;&quot;&gt;&lt;br&gt;&lt;/div&gt;" style="html=1;whiteSpace=wrap;strokeColor=#000000;fillColor=none;strokeWidth=1.5;dashed=1;dashPattern=8 8;movable=1;resizable=1;rotatable=1;deletable=1;editable=1;locked=0;connectable=1;fontSize=15;" vertex="1" parent="1">
          <mxGeometry x="80" y="1480" width="1080" height="580" as="geometry" />
        </mxCell>
        <mxCell id="zjPSrjeSeQt5ffsrBEnH-1" value="&lt;font style=&quot;font-size: 18px;&quot;&gt;«component»&lt;br&gt;&lt;b&gt;Hardware&lt;/b&gt;&lt;/font&gt;" style="html=1;dropTarget=0;whiteSpace=wrap;strokeColor=#7f7f7f;strokeWidth=1.5;align=center;verticalAlign=middle;fontFamily=Helvetica;fontSize=12;fontColor=default;fillColor=#d9d9d9;movable=1;resizable=1;rotatable=1;deletable=1;editable=1;locked=0;connectable=1;" vertex="1" parent="1">
          <mxGeometry x="80" y="2080" width="1080" height="90" as="geometry" />
        </mxCell>
        <mxCell id="zjPSrjeSeQt5ffsrBEnH-2" value="" style="shape=module;jettyWidth=8;jettyHeight=4;strokeColor=#7f7f7f;strokeWidth=1.5;align=center;verticalAlign=middle;fontFamily=Helvetica;fontSize=12;fontColor=default;fillColor=#d9d9d9;movable=1;resizable=1;rotatable=1;deletable=1;editable=1;locked=0;connectable=1;" vertex="1" parent="zjPSrjeSeQt5ffsrBEnH-1">
          <mxGeometry x="1" width="20" height="20" relative="1" as="geometry">
            <mxPoint x="-27" y="7" as="offset" />
          </mxGeometry>
        </mxCell>
        <mxCell id="zjPSrjeSeQt5ffsrBEnH-3" value="Hardware component" style="html=1;whiteSpace=wrap;strokeColor=#7f7f7f;fillColor=#d9d9d9;strokeWidth=1.5;movable=1;resizable=1;rotatable=1;deletable=1;editable=1;locked=0;connectable=1;fontSize=15;" vertex="1" parent="1">
          <mxGeometry x="1310" y="1810" width="170" height="50" as="geometry" />
        </mxCell>
        <mxCell id="zjPSrjeSeQt5ffsrBEnH-4" value="This Software&lt;div style=&quot;font-size: 15px;&quot;&gt;Element&lt;/div&gt;" style="html=1;whiteSpace=wrap;strokeColor=#000000;fillColor=none;strokeWidth=1.5;dashed=1;dashPattern=8 8;movable=1;resizable=1;rotatable=1;deletable=1;editable=1;locked=0;connectable=1;fontSize=15;" vertex="1" parent="1">
          <mxGeometry x="1310" y="1720" width="170" height="50" as="geometry" />
        </mxCell>
        <mxCell id="zjPSrjeSeQt5ffsrBEnH-5" value="Safety Software&lt;div style=&quot;font-size: 15px;&quot;&gt;Component in Element&lt;/div&gt;" style="html=1;whiteSpace=wrap;strokeColor=#7030a0;fillColor=#f8cbad;strokeWidth=1.5;rounded=1;movable=1;resizable=1;rotatable=1;deletable=1;editable=1;locked=0;connectable=1;fontSize=15;" vertex="1" parent="1">
          <mxGeometry x="1310" y="1640" width="170" height="50" as="geometry" />
        </mxCell>
        <mxCell id="zjPSrjeSeQt5ffsrBEnH-6" value="Non-Safety Software&lt;div style=&quot;font-size: 15px;&quot;&gt;Component in Element&lt;/div&gt;" style="html=1;whiteSpace=wrap;strokeColor=#7030a0;fillColor=#b4c7e7;strokeWidth=1.5;rounded=1;movable=1;resizable=1;rotatable=1;deletable=1;editable=1;locked=0;connectable=1;fontSize=15;" vertex="1" parent="1">
          <mxGeometry x="1310" y="1560" width="170" height="50" as="geometry" />
        </mxCell>
        <mxCell id="zjPSrjeSeQt5ffsrBEnH-7" value="Open Souce&lt;div style=&quot;font-size: 15px;&quot;&gt;Element/Component/&lt;/div&gt;&lt;div style=&quot;font-size: 15px;&quot;&gt;Component Set&lt;/div&gt;" style="html=1;whiteSpace=wrap;strokeColor=#000000;fillColor=none;strokeWidth=1.5;rounded=1;movable=1;resizable=1;rotatable=1;deletable=1;editable=1;locked=0;connectable=1;fontSize=15;" vertex="1" parent="1">
          <mxGeometry x="1310" y="1480" width="170" height="50" as="geometry" />
        </mxCell>
        <mxCell id="zjPSrjeSeQt5ffsrBEnH-8" value="Axera Software&lt;div style=&quot;font-size: 15px;&quot;&gt;Component Set&lt;/div&gt;" style="html=1;whiteSpace=wrap;strokeColor=#7030a0;fillColor=none;strokeWidth=1.5;rounded=1;movable=1;resizable=1;rotatable=1;deletable=1;editable=1;locked=0;connectable=1;fontSize=15;" vertex="1" parent="1">
          <mxGeometry x="1310" y="1400" width="170" height="50" as="geometry" />
        </mxCell>
        <mxCell id="zjPSrjeSeQt5ffsrBEnH-9" value="Other Software&lt;div style=&quot;font-size: 15px;&quot;&gt;Element/Componet&lt;/div&gt;&lt;div style=&quot;font-size: 15px;&quot;&gt;Outside this Element&lt;/div&gt;" style="html=1;whiteSpace=wrap;strokeColor=#000000;fillColor=#a6a6a6;strokeWidth=1.5;rounded=1;dashed=1;dashPattern=8 8;movable=1;resizable=1;rotatable=1;deletable=1;editable=1;locked=0;connectable=1;fontSize=15;" vertex="1" parent="1">
          <mxGeometry x="1310" y="1320" width="170" height="50" as="geometry" />
        </mxCell>
        <mxCell id="zjPSrjeSeQt5ffsrBEnH-10" value="«component&lt;span style=&quot;background-color: initial; font-size: 15px;&quot;&gt;»&lt;/span&gt;&lt;div style=&quot;font-size: 15px;&quot;&gt;&lt;b style=&quot;font-size: 15px;&quot;&gt;S02E03C01&lt;/b&gt;&lt;/div&gt;&lt;div style=&quot;font-size: 15px;&quot;&gt;&lt;b style=&quot;font-size: 15px;&quot;&gt;Kernel Reset Driver&lt;/b&gt;&lt;/div&gt;" style="html=1;dropTarget=0;whiteSpace=wrap;rounded=1;strokeColor=#7030a0;strokeWidth=1.5;align=center;verticalAlign=middle;fontFamily=Helvetica;fontSize=15;fontColor=default;fillColor=#f8cbad;movable=1;resizable=1;rotatable=1;deletable=1;editable=1;locked=0;connectable=1;" vertex="1" parent="1">
          <mxGeometry x="760" y="1900" width="230" height="70" as="geometry" />
        </mxCell>
        <mxCell id="zjPSrjeSeQt5ffsrBEnH-11" value="" style="shape=module;jettyWidth=8;jettyHeight=4;rounded=1;strokeColor=#7030a0;strokeWidth=1.5;align=center;verticalAlign=middle;fontFamily=Helvetica;fontSize=12;fontColor=default;fillColor=#f8cbad;movable=1;resizable=1;rotatable=1;deletable=1;editable=1;locked=0;connectable=1;" vertex="1" parent="zjPSrjeSeQt5ffsrBEnH-10">
          <mxGeometry x="1" width="20" height="20" relative="1" as="geometry">
            <mxPoint x="-27" y="7" as="offset" />
          </mxGeometry>
        </mxCell>
        <mxCell id="zjPSrjeSeQt5ffsrBEnH-12" value="«component&lt;span style=&quot;background-color: initial; font-size: 15px;&quot;&gt;»&lt;/span&gt;&lt;div style=&quot;font-size: 15px;&quot;&gt;&lt;b style=&quot;font-size: 15px;&quot;&gt;S02E02C01&lt;/b&gt;&lt;/div&gt;&lt;div style=&quot;font-size: 15px;&quot;&gt;&lt;b style=&quot;font-size: 15px;&quot;&gt;Kernel Clock Driver&lt;/b&gt;&lt;/div&gt;" style="html=1;dropTarget=0;whiteSpace=wrap;rounded=1;strokeColor=#7030a0;strokeWidth=1.5;align=center;verticalAlign=middle;fontFamily=Helvetica;fontSize=15;fontColor=default;fillColor=#f8cbad;movable=1;resizable=1;rotatable=1;deletable=1;editable=1;locked=0;connectable=1;" vertex="1" parent="1">
          <mxGeometry x="260" y="1900" width="230" height="70" as="geometry" />
        </mxCell>
        <mxCell id="zjPSrjeSeQt5ffsrBEnH-13" value="" style="shape=module;jettyWidth=8;jettyHeight=4;rounded=1;strokeColor=#7030a0;strokeWidth=1.5;align=center;verticalAlign=middle;fontFamily=Helvetica;fontSize=12;fontColor=default;fillColor=#f8cbad;movable=1;resizable=1;rotatable=1;deletable=1;editable=1;locked=0;connectable=1;" vertex="1" parent="zjPSrjeSeQt5ffsrBEnH-12">
          <mxGeometry x="1" width="20" height="20" relative="1" as="geometry">
            <mxPoint x="-27" y="7" as="offset" />
          </mxGeometry>
        </mxCell>
        <mxCell id="zjPSrjeSeQt5ffsrBEnH-14" value="«component&lt;span style=&quot;background-color: initial; font-size: 15px;&quot;&gt;»&lt;/span&gt;&lt;div style=&quot;font-size: 15px;&quot;&gt;&lt;b&gt;Reset Core&lt;/b&gt;&lt;/div&gt;" style="html=1;dropTarget=0;whiteSpace=wrap;rounded=1;strokeColor=#000000;strokeWidth=1.5;align=center;verticalAlign=middle;fontFamily=Helvetica;fontSize=15;fontColor=default;fillColor=#E6E6E6;movable=1;resizable=1;rotatable=1;deletable=1;editable=1;locked=0;connectable=1;" vertex="1" parent="1">
          <mxGeometry x="760" y="1680" width="230" height="60" as="geometry" />
        </mxCell>
        <mxCell id="zjPSrjeSeQt5ffsrBEnH-15" value="" style="shape=module;jettyWidth=8;jettyHeight=4;rounded=1;strokeColor=#000000;strokeWidth=1.5;align=center;verticalAlign=middle;fontFamily=Helvetica;fontSize=12;fontColor=default;fillColor=default;movable=1;resizable=1;rotatable=1;deletable=1;editable=1;locked=0;connectable=1;" vertex="1" parent="zjPSrjeSeQt5ffsrBEnH-14">
          <mxGeometry x="1" width="20" height="20" relative="1" as="geometry">
            <mxPoint x="-27" y="7" as="offset" />
          </mxGeometry>
        </mxCell>
        <mxCell id="zjPSrjeSeQt5ffsrBEnH-16" value="«component&lt;span style=&quot;background-color: initial; font-size: 15px;&quot;&gt;»&lt;/span&gt;&lt;div style=&quot;font-size: 15px;&quot;&gt;&lt;b&gt;CCF&lt;/b&gt;&lt;/div&gt;" style="html=1;dropTarget=0;whiteSpace=wrap;rounded=1;strokeColor=#000000;strokeWidth=1.5;align=center;verticalAlign=middle;fontFamily=Helvetica;fontSize=15;fontColor=default;fillColor=#E6E6E6;movable=1;resizable=1;rotatable=1;deletable=1;editable=1;locked=0;connectable=1;" vertex="1" parent="1">
          <mxGeometry x="260" y="1670" width="230" height="60" as="geometry" />
        </mxCell>
        <mxCell id="zjPSrjeSeQt5ffsrBEnH-17" value="" style="shape=module;jettyWidth=8;jettyHeight=4;rounded=1;strokeColor=#000000;strokeWidth=1.5;align=center;verticalAlign=middle;fontFamily=Helvetica;fontSize=12;fontColor=default;fillColor=default;movable=1;resizable=1;rotatable=1;deletable=1;editable=1;locked=0;connectable=1;" vertex="1" parent="zjPSrjeSeQt5ffsrBEnH-16">
          <mxGeometry x="1" width="20" height="20" relative="1" as="geometry">
            <mxPoint x="-27" y="7" as="offset" />
          </mxGeometry>
        </mxCell>
        <mxCell id="zjPSrjeSeQt5ffsrBEnH-20" value="UART" style="html=1;whiteSpace=wrap;strokeColor=#000000;fillColor=#a6a6a6;strokeWidth=1.5;rounded=1;dashed=1;dashPattern=8 8;movable=1;resizable=1;rotatable=1;deletable=1;editable=1;locked=0;connectable=1;fontSize=15;" vertex="1" parent="1">
          <mxGeometry x="329" y="1360" width="170" height="50" as="geometry" />
        </mxCell>
        <mxCell id="zjPSrjeSeQt5ffsrBEnH-21" value="SPI" style="html=1;whiteSpace=wrap;strokeColor=#000000;fillColor=#a6a6a6;strokeWidth=1.5;rounded=1;dashed=1;dashPattern=8 8;movable=1;resizable=1;rotatable=1;deletable=1;editable=1;locked=0;connectable=1;fontSize=15;" vertex="1" parent="1">
          <mxGeometry x="550" y="1360" width="170" height="50" as="geometry" />
        </mxCell>
        <mxCell id="zjPSrjeSeQt5ffsrBEnH-22" value="PWM" style="html=1;whiteSpace=wrap;strokeColor=#000000;fillColor=#a6a6a6;strokeWidth=1.5;rounded=1;dashed=1;dashPattern=8 8;movable=1;resizable=1;rotatable=1;deletable=1;editable=1;locked=0;connectable=1;fontSize=15;" vertex="1" parent="1">
          <mxGeometry x="762" y="1360" width="170" height="50" as="geometry" />
        </mxCell>
        <mxCell id="zjPSrjeSeQt5ffsrBEnH-23" value="Kernel Open-Source" style="text;html=1;align=center;verticalAlign=middle;whiteSpace=wrap;rounded=0;fontSize=18;movable=1;resizable=1;rotatable=1;deletable=1;editable=1;locked=0;connectable=1;" vertex="1" parent="1">
          <mxGeometry x="920" y="1600" width="190" height="30" as="geometry" />
        </mxCell>
        <mxCell id="zjPSrjeSeQt5ffsrBEnH-24" value="Kernel Driver" style="text;html=1;align=center;verticalAlign=middle;whiteSpace=wrap;rounded=0;fontSize=18;movable=1;resizable=1;rotatable=1;deletable=1;editable=1;locked=0;connectable=1;" vertex="1" parent="1">
          <mxGeometry x="920" y="1850" width="190" height="30" as="geometry" />
        </mxCell>
        <mxCell id="zjPSrjeSeQt5ffsrBEnH-26" value="" style="html=1;whiteSpace=wrap;strokeColor=#000000;fillColor=none;strokeWidth=1.5;rounded=1;dashed=1;dashPattern=8 8;movable=1;resizable=1;rotatable=1;deletable=1;editable=1;locked=0;connectable=1;fontSize=15;" vertex="1" parent="1">
          <mxGeometry x="80" y="1280" width="1080" height="170" as="geometry" />
        </mxCell>
        <mxCell id="zjPSrjeSeQt5ffsrBEnH-27" value="&lt;font style=&quot;font-size: 18px;&quot;&gt;&lt;b&gt;S02E02 Clock &amp;amp; S02E03 Reset&lt;/b&gt;&lt;/font&gt;" style="text;html=1;align=center;verticalAlign=middle;whiteSpace=wrap;rounded=0;movable=1;resizable=1;rotatable=1;deletable=1;editable=1;locked=0;connectable=1;" vertex="1" parent="1">
          <mxGeometry x="80" y="1485" width="300" height="40" as="geometry" />
        </mxCell>
        <mxCell id="zjPSrjeSeQt5ffsrBEnH-28" value="" style="endArrow=classic;html=1;rounded=0;exitX=0.5;exitY=1;exitDx=0;exitDy=0;entryX=0.5;entryY=0;entryDx=0;entryDy=0;strokeWidth=2;" edge="1" parent="1" source="zjPSrjeSeQt5ffsrBEnH-16" target="zjPSrjeSeQt5ffsrBEnH-12">
          <mxGeometry width="50" height="50" relative="1" as="geometry">
            <mxPoint x="-20" y="1900" as="sourcePoint" />
            <mxPoint x="30" y="1850" as="targetPoint" />
          </mxGeometry>
        </mxCell>
        <mxCell id="zjPSrjeSeQt5ffsrBEnH-29" value="" style="endArrow=classic;html=1;rounded=0;exitX=0.5;exitY=1;exitDx=0;exitDy=0;strokeWidth=2;" edge="1" parent="1" source="zjPSrjeSeQt5ffsrBEnH-14" target="zjPSrjeSeQt5ffsrBEnH-10">
          <mxGeometry width="50" height="50" relative="1" as="geometry">
            <mxPoint x="385" y="1740" as="sourcePoint" />
            <mxPoint x="385" y="1910" as="targetPoint" />
          </mxGeometry>
        </mxCell>
        <mxCell id="zjPSrjeSeQt5ffsrBEnH-30" value="" style="endArrow=classic;html=1;rounded=0;exitX=0.5;exitY=1;exitDx=0;exitDy=0;strokeWidth=2;" edge="1" parent="1" source="zjPSrjeSeQt5ffsrBEnH-20" target="zjPSrjeSeQt5ffsrBEnH-16">
          <mxGeometry width="50" height="50" relative="1" as="geometry">
            <mxPoint x="-100" y="1700" as="sourcePoint" />
            <mxPoint x="-50" y="1650" as="targetPoint" />
            <Array as="points">
              <mxPoint x="414" y="1540" />
              <mxPoint x="375" y="1540" />
            </Array>
          </mxGeometry>
        </mxCell>
        <mxCell id="zjPSrjeSeQt5ffsrBEnH-32" value="" style="endArrow=none;html=1;rounded=0;exitX=0.5;exitY=1;exitDx=0;exitDy=0;strokeWidth=2;" edge="1" parent="1" source="zjPSrjeSeQt5ffsrBEnH-21">
          <mxGeometry width="50" height="50" relative="1" as="geometry">
            <mxPoint x="560" y="1590" as="sourcePoint" />
            <mxPoint x="410" y="1540" as="targetPoint" />
            <Array as="points">
              <mxPoint x="635" y="1540" />
            </Array>
          </mxGeometry>
        </mxCell>
        <mxCell id="zjPSrjeSeQt5ffsrBEnH-33" value="" style="endArrow=none;html=1;rounded=0;exitX=0.5;exitY=1;exitDx=0;exitDy=0;strokeWidth=2;" edge="1" parent="1" source="zjPSrjeSeQt5ffsrBEnH-22">
          <mxGeometry width="50" height="50" relative="1" as="geometry">
            <mxPoint x="603" y="1420" as="sourcePoint" />
            <mxPoint x="410" y="1540" as="targetPoint" />
            <Array as="points">
              <mxPoint x="847" y="1540" />
            </Array>
          </mxGeometry>
        </mxCell>
        <mxCell id="zjPSrjeSeQt5ffsrBEnH-34" value="" style="endArrow=classic;html=1;rounded=0;entryX=0.5;entryY=0;entryDx=0;entryDy=0;strokeWidth=2;" edge="1" parent="1" target="zjPSrjeSeQt5ffsrBEnH-14">
          <mxGeometry width="50" height="50" relative="1" as="geometry">
            <mxPoint x="840" y="1540" as="sourcePoint" />
            <mxPoint x="570" y="1680" as="targetPoint" />
            <Array as="points">
              <mxPoint x="875" y="1540" />
            </Array>
          </mxGeometry>
        </mxCell>
        <mxCell id="zjPSrjeSeQt5ffsrBEnH-35" value="" style="endArrow=classic;html=1;rounded=0;exitX=0.5;exitY=1;exitDx=0;exitDy=0;entryX=0.272;entryY=0.004;entryDx=0;entryDy=0;strokeWidth=2;entryPerimeter=0;" edge="1" parent="1" source="zjPSrjeSeQt5ffsrBEnH-12" target="zjPSrjeSeQt5ffsrBEnH-1">
          <mxGeometry width="50" height="50" relative="1" as="geometry">
            <mxPoint x="370" y="2140" as="sourcePoint" />
            <mxPoint x="370" y="2310" as="targetPoint" />
          </mxGeometry>
        </mxCell>
        <mxCell id="zjPSrjeSeQt5ffsrBEnH-36" value="" style="endArrow=classic;html=1;rounded=0;exitX=0.5;exitY=1;exitDx=0;exitDy=0;entryX=0.272;entryY=0.004;entryDx=0;entryDy=0;strokeWidth=2;entryPerimeter=0;" edge="1" parent="1">
          <mxGeometry width="50" height="50" relative="1" as="geometry">
            <mxPoint x="875.5" y="1970" as="sourcePoint" />
            <mxPoint x="874.5" y="2080" as="targetPoint" />
          </mxGeometry>
        </mxCell>
        <mxCell id="zjPSrjeSeQt5ffsrBEnH-37" value="Other kernel SW Element" style="text;html=1;align=center;verticalAlign=middle;whiteSpace=wrap;rounded=0;fontSize=18;movable=1;resizable=1;rotatable=1;deletable=1;editable=1;locked=0;connectable=1;" vertex="1" parent="1">
          <mxGeometry x="910" y="1290" width="230" height="30" as="geometry" />
        </mxCell>
      </root>
    </mxGraphModel>
  </diagram>
</mxfile>
